# xmcd
#
# Track frame offsets: 
#        150
#        16236
#        34266
#        56176
#        74390
#        90803
#        110078
#        129015
#        145136
#        163065
#
# Disc length: 2397 seconds
#
# Revision: 0
# Processed by: cddbd v1.5.2PL0 Copyright (c) Steve Scherf et al.
# Submitted via: ExactAudioCopy v1.2
#
DISCID=81095b0a
DTITLE=Jamell Richardson - Blues How I Wanna Blues
DYEAR=2017
DGENRE=Blues
TTITLE0=Blues How I Wanna Blues
TTITLE1=When I Squeeze Her
TTITLE2=O'Why
TTITLE3=Jus' Be Yo'self
TTITLE4=I Found You (Wedding Collection)
TTITLE5=Sarah Pearl
TTITLE6=Overdrive
TTITLE7=Hero
TTITLE8=Party When the Sun Goes Down
TTITLE9=It's Alright to Smile
EXTD=
EXTT0=
EXTT1=
EXTT2=
EXTT3=
EXTT4=
EXTT5=
EXTT6=
EXTT7=
EXTT8=
EXTT9=
PLAYORDER=
